<svg width="47" height="20" viewBox="0 0 47 20" fill="none" xmlns="http://www.w3.org/2000/svg">
<path d="M31 16.4846L31 2.8943C31 1.84811 29.536 1 27.73 1L4.27 0.999999C2.46403 0.999999 1 1.84811 1 2.8943L0.999999 16.4846C0.999999 17.5308 2.46403 18.3789 4.27 18.3789L27.73 18.3789C29.536 18.3789 31 17.5308 31 16.4846Z" stroke="#BF0637" stroke-width="2" stroke-linecap="round" stroke-linejoin="round"/>
<path d="M31 5.34509L1 5.34509" stroke="#BF0637" stroke-width="2" stroke-linecap="round" stroke-linejoin="round"/>
<path d="M31 14.0343L1 14.0343" stroke="#BF0637" stroke-width="2" stroke-linecap="round" stroke-linejoin="round"/>
<path d="M15.9999 1L15.9999 18.3789" stroke="#BF0637" stroke-width="2" stroke-linecap="round" stroke-linejoin="round"/>
<path d="M23.5 1L23.5 5.34472" stroke="#BF0637" stroke-width="2" stroke-linecap="round" stroke-linejoin="round"/>
<path d="M8.49994 1L8.49994 5.34472" stroke="#BF0637" stroke-width="2" stroke-linecap="round" stroke-linejoin="round"/>
<path d="M8.49994 14.0343L8.49994 18.379" stroke="#BF0637" stroke-width="2" stroke-linecap="round" stroke-linejoin="round"/>
<path d="M23.5 14.0343L23.5 18.379" stroke="#BF0637" stroke-width="2" stroke-linecap="round" stroke-linejoin="round"/>
<path d="M46 16.4846L46 2.8943C46 1.84811 44.536 1 42.73 1L19.27 0.999999C17.464 0.999999 16 1.84811 16 2.8943L16 16.4846C16 17.5308 17.464 18.3789 19.27 18.3789L42.73 18.3789C44.536 18.3789 46 17.5308 46 16.4846Z" stroke="#BF0637" stroke-width="2" stroke-linecap="round" stroke-linejoin="round"/>
<path d="M46 5.34509L16 5.34509" stroke="#BF0637" stroke-width="2" stroke-linecap="round" stroke-linejoin="round"/>
<path d="M46 14.0343L16 14.0343" stroke="#BF0637" stroke-width="2" stroke-linecap="round" stroke-linejoin="round"/>
<path d="M30.9999 1L30.9999 18.3789" stroke="#BF0637" stroke-width="2" stroke-linecap="round" stroke-linejoin="round"/>
<path d="M38.5 1L38.5 5.34472" stroke="#BF0637" stroke-width="2" stroke-linecap="round" stroke-linejoin="round"/>
<path d="M23.4999 1L23.4999 5.34472" stroke="#BF0637" stroke-width="2" stroke-linecap="round" stroke-linejoin="round"/>
<path d="M23.4999 14.0343L23.4999 18.379" stroke="#BF0637" stroke-width="2" stroke-linecap="round" stroke-linejoin="round"/>
<path d="M38.5 14.0343L38.5 18.379" stroke="#BF0637" stroke-width="2" stroke-linecap="round" stroke-linejoin="round"/>
</svg>
