<svg width="6" height="5" viewBox="0 0 6 5" fill="none" xmlns="http://www.w3.org/2000/svg">
<path d="M5.38353 0.442036C5.24099 0.301898 5.07176 0.19073 4.8855 0.114884C4.69923 0.0390381 4.49959 0 4.29797 0C4.09634 0 3.8967 0.0390381 3.71043 0.114884C3.52417 0.19073 3.35494 0.301898 3.2124 0.442036L2.91659 0.732737L2.62078 0.442036C2.33287 0.159099 1.94238 0.000146656 1.53522 0.000146659C1.12805 0.000146662 0.737565 0.159099 0.449655 0.442036C0.161746 0.724973 3.03362e-09 1.10872 0 1.50885C-3.03362e-09 1.90899 0.161746 2.29273 0.449655 2.57567L0.745464 2.86637L2.91659 5L5.08772 2.86637L5.38353 2.57567C5.52613 2.4356 5.63925 2.26928 5.71643 2.08624C5.79361 1.90319 5.83333 1.70699 5.83333 1.50885C5.83333 1.31071 5.79361 1.11452 5.71643 0.931467C5.63925 0.74842 5.52613 0.582109 5.38353 0.442036Z" fill="#BF0637"/>
</svg>
