<svg width="21" height="21" viewBox="0 0 21 21" fill="none" xmlns="http://www.w3.org/2000/svg">
<path d="M17.143 17.15H14.1666V12.4793C14.1666 11.3656 14.1433 9.93428 12.6101 9.93428C11.0581 9.93428 10.8216 11.1423 10.8216 12.3969V17.1493H7.8414V7.54583H10.704V8.85577H10.7424C11.1423 8.09924 12.1152 7.30371 13.5666 7.30371C16.5859 7.30371 17.1462 9.29158 17.1462 11.8762V17.1493L17.143 17.15ZM4.47442 6.23337C3.51413 6.23337 2.7444 5.45672 2.7444 4.5002C2.7444 3.54683 3.51728 2.77144 4.47442 2.77144C5.43156 2.77144 6.20696 3.54683 6.20696 4.5002C6.20696 5.45672 5.43156 6.23337 4.47442 6.23337V6.23337ZM5.96736 17.15H2.98085V7.54646H5.96736V17.15ZM18.6372 0H1.48414C0.664717 0 0 0.648366 0 1.45081V18.6737C0 19.4761 0.664717 20.1245 1.48414 20.1245H18.6341C19.4523 20.1245 20.1239 19.4761 20.1239 18.6737V1.45081C20.1239 0.648366 19.4523 0 18.6341 0L18.6372 0Z" fill="#C2929D"/>
</svg>
