<svg width="26" height="26" viewBox="0 0 26 26" fill="none" xmlns="http://www.w3.org/2000/svg">
<circle cx="13" cy="13" r="13" fill="#D9843B" fill-opacity="0.7"/>
<mask id="mask0_28_49" style="mask-type:alpha" maskUnits="userSpaceOnUse" x="0" y="0" width="26" height="26">
<circle cx="13" cy="13" r="13" fill="#D9843B"/>
</mask>
<g mask="url(#mask0_28_49)">
<path d="M26 26V22.7644C26 21.0482 25.3243 19.4022 24.1215 18.1887C22.9188 16.9751 21.2875 16.2933 19.5866 16.2933H6.75995C5.05903 16.2933 3.42777 16.9751 2.22504 18.1887C1.02231 19.4022 0.346619 21.0482 0.346619 22.7644V26" fill="#C2929D"/>
</g>
<path d="M12.9387 15.4774C15.8725 15.4774 18.2508 13.0991 18.2508 10.1654C18.2508 7.23157 15.8725 4.85327 12.9387 4.85327C10.0049 4.85327 7.62665 7.23157 7.62665 10.1654C7.62665 13.0991 10.0049 15.4774 12.9387 15.4774Z" fill="#C2929D"/>
</svg>
